<svg xmlns="http://www.w3.org/2000/svg" xmlns:xlink="http://www.w3.org/1999/xlink" width="595.276" height="822.047" x="0" y="0" version="1.1" viewBox="0 0 595.276 822.047"><g id="Layer 1"><g><g><path fill="#000" d="M12.5,12.5 L36.5,12.5 L36.5,36.5 L12.5,36.5 z"/><path fill-opacity="0" stroke="#FFF" stroke-width="2" d="M12.5,12.5 L36.5,12.5 L36.5,36.5 L12.5,36.5 z"/></g><g><path fill="#000" d="M12.5,12.5 L36.5,12.5 L36.5,36.5 L12.5,36.5 z"/><path fill-opacity="0" stroke="#FFF" stroke-width="2" d="M12.5,12.5 L36.5,12.5 L36.5,36.5 L12.5,36.5 z"/></g></g><g><g><path fill="#000" d="M36.5,12.5 L60.5,12.5 L60.5,36.5 L36.5,36.5 z"/><path fill-opacity="0" stroke="#FFF" stroke-width="2" d="M36.5,12.5 L60.5,12.5 L60.5,36.5 L36.5,36.5 z"/></g><g><path fill="#000" d="M36.5,12.5 L60.5,12.5 L60.5,36.5 L36.5,36.5 z"/><path fill-opacity="0" stroke="#FFF" stroke-width="2" d="M36.5,12.5 L60.5,12.5 L60.5,36.5 L36.5,36.5 z"/></g></g><g><g><path fill="#000" d="M60.5,12.5 L84.5,12.5 L84.5,36.5 L60.5,36.5 z"/><path fill-opacity="0" stroke="#FFF" stroke-width="2" d="M60.5,12.5 L84.5,12.5 L84.5,36.5 L60.5,36.5 z"/></g><g><path fill="#000" d="M60.5,12.5 L84.5,12.5 L84.5,36.5 L60.5,36.5 z"/><path fill-opacity="0" stroke="#FFF" stroke-width="2" d="M60.5,12.5 L84.5,12.5 L84.5,36.5 L60.5,36.5 z"/></g></g><g><g><path fill="#000" d="M12.5,36.5 L36.5,36.5 L36.5,60.5 L12.5,60.5 z"/><path fill-opacity="0" stroke="#FFF" stroke-width="2" d="M12.5,36.5 L36.5,36.5 L36.5,60.5 L12.5,60.5 z"/></g><g><path fill="#000" d="M12.5,36.5 L36.5,36.5 L36.5,60.5 L12.5,60.5 z"/><path fill-opacity="0" stroke="#FFF" stroke-width="2" d="M12.5,36.5 L36.5,36.5 L36.5,60.5 L12.5,60.5 z"/></g></g><g><g><path fill="#000" d="M36.5,36.5 L60.5,36.5 L60.5,60.5 L36.5,60.5 z"/><path fill-opacity="0" stroke="#FFF" stroke-width="2" d="M36.5,36.5 L60.5,36.5 L60.5,60.5 L36.5,60.5 z"/></g><g><path fill="#000" d="M36.5,36.5 L60.5,36.5 L60.5,60.5 L36.5,60.5 z"/><path fill-opacity="0" stroke="#FFF" stroke-width="2" d="M36.5,36.5 L60.5,36.5 L60.5,60.5 L36.5,60.5 z"/></g></g><g><g><path fill="#000" d="M12.5,60.5 L36.5,60.5 L36.5,84.5 L12.5,84.5 z"/><path fill-opacity="0" stroke="#FFF" stroke-width="2" d="M12.5,60.5 L36.5,60.5 L36.5,84.5 L12.5,84.5 z"/></g><g><path fill="#000" d="M12.5,60.5 L36.5,60.5 L36.5,84.5 L12.5,84.5 z"/><path fill-opacity="0" stroke="#FFF" stroke-width="2" d="M12.5,60.5 L36.5,60.5 L36.5,84.5 L12.5,84.5 z"/></g></g><g><g><path fill="#000" d="M36.5,60.5 L60.5,60.5 L60.5,84.5 L36.5,84.5 z"/><path fill-opacity="0" stroke="#FFF" stroke-width="2" d="M36.5,60.5 L60.5,60.5 L60.5,84.5 L36.5,84.5 z"/></g><g><path fill="#000" d="M36.5,60.5 L60.5,60.5 L60.5,84.5 L36.5,84.5 z"/><path fill-opacity="0" stroke="#FFF" stroke-width="2" d="M36.5,60.5 L60.5,60.5 L60.5,84.5 L36.5,84.5 z"/></g></g><g><g><path fill="#000" d="M60.5,60.5 L84.5,60.5 L84.5,84.5 L60.5,84.5 z"/><path fill-opacity="0" stroke="#FFF" stroke-width="2" d="M60.5,60.5 L84.5,60.5 L84.5,84.5 L60.5,84.5 z"/></g><g><path fill="#000" d="M60.5,60.5 L84.5,60.5 L84.5,84.5 L60.5,84.5 z"/><path fill-opacity="0" stroke="#FFF" stroke-width="2" d="M60.5,60.5 L84.5,60.5 L84.5,84.5 L60.5,84.5 z"/></g></g><g><g><path fill="#000" d="M108.5,12.5 L132.5,12.5 L132.5,36.5 L108.5,36.5 z"/><path fill-opacity="0" stroke="#FFF" stroke-width="2" d="M108.5,12.5 L132.5,12.5 L132.5,36.5 L108.5,36.5 z"/></g><g><path fill="#000" d="M108.5,12.5 L132.5,12.5 L132.5,36.5 L108.5,36.5 z"/><path fill-opacity="0" stroke="#FFF" stroke-width="2" d="M108.5,12.5 L132.5,12.5 L132.5,36.5 L108.5,36.5 z"/></g></g><g><g><path fill="#000" d="M132.5,12.5 L156.5,12.5 L156.5,36.5 L132.5,36.5 z"/><path fill-opacity="0" stroke="#FFF" stroke-width="2" d="M132.5,12.5 L156.5,12.5 L156.5,36.5 L132.5,36.5 z"/></g><g><path fill="#000" d="M132.5,12.5 L156.5,12.5 L156.5,36.5 L132.5,36.5 z"/><path fill-opacity="0" stroke="#FFF" stroke-width="2" d="M132.5,12.5 L156.5,12.5 L156.5,36.5 L132.5,36.5 z"/></g></g><g><g><path fill="#000" d="M156.5,12.5 L180.5,12.5 L180.5,36.5 L156.5,36.5 z"/><path fill-opacity="0" stroke="#FFF" stroke-width="2" d="M156.5,12.5 L180.5,12.5 L180.5,36.5 L156.5,36.5 z"/></g><g><path fill="#000" d="M156.5,12.5 L180.5,12.5 L180.5,36.5 L156.5,36.5 z"/><path fill-opacity="0" stroke="#FFF" stroke-width="2" d="M156.5,12.5 L180.5,12.5 L180.5,36.5 L156.5,36.5 z"/></g></g><g><g><path fill="#000" d="M108.5,36.5 L132.5,36.5 L132.5,60.5 L108.5,60.5 z"/><path fill-opacity="0" stroke="#FFF" stroke-width="2" d="M108.5,36.5 L132.5,36.5 L132.5,60.5 L108.5,60.5 z"/></g><g><path fill="#000" d="M108.5,36.5 L132.5,36.5 L132.5,60.5 L108.5,60.5 z"/><path fill-opacity="0" stroke="#FFF" stroke-width="2" d="M108.5,36.5 L132.5,36.5 L132.5,60.5 L108.5,60.5 z"/></g></g><g><g><path fill="#000" d="M132.5,36.5 L156.5,36.5 L156.5,60.5 L132.5,60.5 z"/><path fill-opacity="0" stroke="#FFF" stroke-width="2" d="M132.5,36.5 L156.5,36.5 L156.5,60.5 L132.5,60.5 z"/></g><g><path fill="#000" d="M132.5,36.5 L156.5,36.5 L156.5,60.5 L132.5,60.5 z"/><path fill-opacity="0" stroke="#FFF" stroke-width="2" d="M132.5,36.5 L156.5,36.5 L156.5,60.5 L132.5,60.5 z"/></g></g><g><g><path fill="#000" d="M156.5,36.5 L180.5,36.5 L180.5,60.5 L156.5,60.5 z"/><path fill-opacity="0" stroke="#FFF" stroke-width="2" d="M156.5,36.5 L180.5,36.5 L180.5,60.5 L156.5,60.5 z"/></g><g><path fill="#000" d="M156.5,36.5 L180.5,36.5 L180.5,60.5 L156.5,60.5 z"/><path fill-opacity="0" stroke="#FFF" stroke-width="2" d="M156.5,36.5 L180.5,36.5 L180.5,60.5 L156.5,60.5 z"/></g></g><g><g><path fill="#000" d="M108.5,60.5 L132.5,60.5 L132.5,84.5 L108.5,84.5 z"/><path fill-opacity="0" stroke="#FFF" stroke-width="2" d="M108.5,60.5 L132.5,60.5 L132.5,84.5 L108.5,84.5 z"/></g><g><path fill="#000" d="M108.5,60.5 L132.5,60.5 L132.5,84.5 L108.5,84.5 z"/><path fill-opacity="0" stroke="#FFF" stroke-width="2" d="M108.5,60.5 L132.5,60.5 L132.5,84.5 L108.5,84.5 z"/></g></g><g><g><path fill="#000" d="M132.5,60.5 L156.5,60.5 L156.5,84.5 L132.5,84.5 z"/><path fill-opacity="0" stroke="#FFF" stroke-width="2" d="M132.5,60.5 L156.5,60.5 L156.5,84.5 L132.5,84.5 z"/></g><g><path fill="#000" d="M132.5,60.5 L156.5,60.5 L156.5,84.5 L132.5,84.5 z"/><path fill-opacity="0" stroke="#FFF" stroke-width="2" d="M132.5,60.5 L156.5,60.5 L156.5,84.5 L132.5,84.5 z"/></g></g><g><g><path fill="#000" d="M204.5,12.5 L228.5,12.5 L228.5,36.5 L204.5,36.5 z"/><path fill-opacity="0" stroke="#FFF" stroke-width="2" d="M204.5,12.5 L228.5,12.5 L228.5,36.5 L204.5,36.5 z"/></g><g><path fill="#000" d="M204.5,12.5 L228.5,12.5 L228.5,36.5 L204.5,36.5 z"/><path fill-opacity="0" stroke="#FFF" stroke-width="2" d="M204.5,12.5 L228.5,12.5 L228.5,36.5 L204.5,36.5 z"/></g></g><g><g><path fill="#000" d="M228.5,12.5 L252.5,12.5 L252.5,36.5 L228.5,36.5 z"/><path fill-opacity="0" stroke="#FFF" stroke-width="2" d="M228.5,12.5 L252.5,12.5 L252.5,36.5 L228.5,36.5 z"/></g><g><path fill="#000" d="M228.5,12.5 L252.5,12.5 L252.5,36.5 L228.5,36.5 z"/><path fill-opacity="0" stroke="#FFF" stroke-width="2" d="M228.5,12.5 L252.5,12.5 L252.5,36.5 L228.5,36.5 z"/></g></g><g><g><path fill="#000" d="M252.5,12.5 L276.5,12.5 L276.5,36.5 L252.5,36.5 z"/><path fill-opacity="0" stroke="#FFF" stroke-width="2" d="M252.5,12.5 L276.5,12.5 L276.5,36.5 L252.5,36.5 z"/></g><g><path fill="#000" d="M252.5,12.5 L276.5,12.5 L276.5,36.5 L252.5,36.5 z"/><path fill-opacity="0" stroke="#FFF" stroke-width="2" d="M252.5,12.5 L276.5,12.5 L276.5,36.5 L252.5,36.5 z"/></g></g><g><g><path fill="#000" d="M204.5,36.5 L228.5,36.5 L228.5,60.5 L204.5,60.5 z"/><path fill-opacity="0" stroke="#FFF" stroke-width="2" d="M204.5,36.5 L228.5,36.5 L228.5,60.5 L204.5,60.5 z"/></g><g><path fill="#000" d="M204.5,36.5 L228.5,36.5 L228.5,60.5 L204.5,60.5 z"/><path fill-opacity="0" stroke="#FFF" stroke-width="2" d="M204.5,36.5 L228.5,36.5 L228.5,60.5 L204.5,60.5 z"/></g></g><g><g><path fill="#000" d="M228.5,36.5 L252.5,36.5 L252.5,60.5 L228.5,60.5 z"/><path fill-opacity="0" stroke="#FFF" stroke-width="2" d="M228.5,36.5 L252.5,36.5 L252.5,60.5 L228.5,60.5 z"/></g><g><path fill="#000" d="M228.5,36.5 L252.5,36.5 L252.5,60.5 L228.5,60.5 z"/><path fill-opacity="0" stroke="#FFF" stroke-width="2" d="M228.5,36.5 L252.5,36.5 L252.5,60.5 L228.5,60.5 z"/></g></g><g><g><path fill="#000" d="M252.5,36.5 L276.5,36.5 L276.5,60.5 L252.5,60.5 z"/><path fill-opacity="0" stroke="#FFF" stroke-width="2" d="M252.5,36.5 L276.5,36.5 L276.5,60.5 L252.5,60.5 z"/></g><g><path fill="#000" d="M252.5,36.5 L276.5,36.5 L276.5,60.5 L252.5,60.5 z"/><path fill-opacity="0" stroke="#FFF" stroke-width="2" d="M252.5,36.5 L276.5,36.5 L276.5,60.5 L252.5,60.5 z"/></g></g><g><g><path fill="#000" d="M204.5,60.5 L228.5,60.5 L228.5,84.5 L204.5,84.5 z"/><path fill-opacity="0" stroke="#FFF" stroke-width="2" d="M204.5,60.5 L228.5,60.5 L228.5,84.5 L204.5,84.5 z"/></g><g><path fill="#000" d="M204.5,60.5 L228.5,60.5 L228.5,84.5 L204.5,84.5 z"/><path fill-opacity="0" stroke="#FFF" stroke-width="2" d="M204.5,60.5 L228.5,60.5 L228.5,84.5 L204.5,84.5 z"/></g></g><g><g><path fill="#000" d="M252.5,60.5 L276.5,60.5 L276.5,84.5 L252.5,84.5 z"/><path fill-opacity="0" stroke="#FFF" stroke-width="2" d="M252.5,60.5 L276.5,60.5 L276.5,84.5 L252.5,84.5 z"/></g><g><path fill="#000" d="M252.5,60.5 L276.5,60.5 L276.5,84.5 L252.5,84.5 z"/><path fill-opacity="0" stroke="#FFF" stroke-width="2" d="M252.5,60.5 L276.5,60.5 L276.5,84.5 L252.5,84.5 z"/></g></g><g><g><path fill="#000" d="M332.663,12.5 L356.663,12.5 L356.663,36.5 L332.663,36.5 z"/><path fill-opacity="0" stroke="#FFF" stroke-width="2" d="M332.663,12.5 L356.663,12.5 L356.663,36.5 L332.663,36.5 z"/></g><g><path fill="#000" d="M332.663,12.5 L356.663,12.5 L356.663,36.5 L332.663,36.5 z"/><path fill-opacity="0" stroke="#FFF" stroke-width="2" d="M332.663,12.5 L356.663,12.5 L356.663,36.5 L332.663,36.5 z"/></g></g><g><g><path fill="#000" d="M356.663,12.5 L380.663,12.5 L380.663,36.5 L356.663,36.5 z"/><path fill-opacity="0" stroke="#FFF" stroke-width="2" d="M356.663,12.5 L380.663,12.5 L380.663,36.5 L356.663,36.5 z"/></g><g><path fill="#000" d="M356.663,12.5 L380.663,12.5 L380.663,36.5 L356.663,36.5 z"/><path fill-opacity="0" stroke="#FFF" stroke-width="2" d="M356.663,12.5 L380.663,12.5 L380.663,36.5 L356.663,36.5 z"/></g></g><g><g><path fill="#000" d="M380.663,12.5 L404.663,12.5 L404.663,36.5 L380.663,36.5 z"/><path fill-opacity="0" stroke="#FFF" stroke-width="2" d="M380.663,12.5 L404.663,12.5 L404.663,36.5 L380.663,36.5 z"/></g><g><path fill="#000" d="M380.663,12.5 L404.663,12.5 L404.663,36.5 L380.663,36.5 z"/><path fill-opacity="0" stroke="#FFF" stroke-width="2" d="M380.663,12.5 L404.663,12.5 L404.663,36.5 L380.663,36.5 z"/></g></g><g><g><path fill="#000" d="M332.663,36.5 L356.663,36.5 L356.663,60.5 L332.663,60.5 z"/><path fill-opacity="0" stroke="#FFF" stroke-width="2" d="M332.663,36.5 L356.663,36.5 L356.663,60.5 L332.663,60.5 z"/></g><g><path fill="#000" d="M332.663,36.5 L356.663,36.5 L356.663,60.5 L332.663,60.5 z"/><path fill-opacity="0" stroke="#FFF" stroke-width="2" d="M332.663,36.5 L356.663,36.5 L356.663,60.5 L332.663,60.5 z"/></g></g><g><g><path fill="#000" d="M356.663,36.5 L380.663,36.5 L380.663,60.5 L356.663,60.5 z"/><path fill-opacity="0" stroke="#FFF" stroke-width="2" d="M356.663,36.5 L380.663,36.5 L380.663,60.5 L356.663,60.5 z"/></g><g><path fill="#000" d="M356.663,36.5 L380.663,36.5 L380.663,60.5 L356.663,60.5 z"/><path fill-opacity="0" stroke="#FFF" stroke-width="2" d="M356.663,36.5 L380.663,36.5 L380.663,60.5 L356.663,60.5 z"/></g></g><g><g><path fill="#000" d="M332.663,60.5 L356.663,60.5 L356.663,84.5 L332.663,84.5 z"/><path fill-opacity="0" stroke="#FFF" stroke-width="2" d="M332.663,60.5 L356.663,60.5 L356.663,84.5 L332.663,84.5 z"/></g><g><path fill="#000" d="M332.663,60.5 L356.663,60.5 L356.663,84.5 L332.663,84.5 z"/><path fill-opacity="0" stroke="#FFF" stroke-width="2" d="M332.663,60.5 L356.663,60.5 L356.663,84.5 L332.663,84.5 z"/></g></g><g><g><path fill="#000" d="M356.663,60.5 L380.663,60.5 L380.663,84.5 L356.663,84.5 z"/><path fill-opacity="0" stroke="#FFF" stroke-width="2" d="M356.663,60.5 L380.663,60.5 L380.663,84.5 L356.663,84.5 z"/></g><g><path fill="#000" d="M356.663,60.5 L380.663,60.5 L380.663,84.5 L356.663,84.5 z"/><path fill-opacity="0" stroke="#FFF" stroke-width="2" d="M356.663,60.5 L380.663,60.5 L380.663,84.5 L356.663,84.5 z"/></g></g><text transform="matrix(1, 0, 0, 1, 240.5, 92)"><tspan x="-3.837" y="4" fill="#000" font-family="Helvetica" font-size="12">2</tspan></text><text transform="matrix(1, 0, 0, 1, 304.806, 53.02)"><tspan x="-7.168" y="5.5" fill="#000" font-family="Helvetica" font-size="16">...</tspan></text><text transform="matrix(1, 0, 0, 1, 48.5, 92)"><tspan x="-3.837" y="4" fill="#000" font-family="Helvetica" font-size="12">0</tspan></text><text transform="matrix(1, 0, 0, 1, 144.5, 92)"><tspan x="-3.837" y="4" fill="#000" font-family="Helvetica" font-size="12">1</tspan></text><text transform="matrix(1, 0, 0, 1, 368.663, 92)"><tspan x="-3.837" y="4" fill="#000" font-family="Helvetica" font-size="12">8</tspan></text><g><g><path fill="#000" d="M140.663,110.75 L164.663,110.75 L164.663,134.75 L140.663,134.75 z"/><path fill-opacity="0" stroke="#FFF" stroke-width="2" d="M140.663,110.75 L164.663,110.75 L164.663,134.75 L140.663,134.75 z"/></g><g><path fill="#000" d="M140.663,110.75 L164.663,110.75 L164.663,134.75 L140.663,134.75 z"/><path fill-opacity="0" stroke="#FFF" stroke-width="2" d="M140.663,110.75 L164.663,110.75 L164.663,134.75 L140.663,134.75 z"/></g></g><g><g><path fill="#000" d="M164.663,110.75 L188.663,110.75 L188.663,134.75 L164.663,134.75 z"/><path fill-opacity="0" stroke="#FFF" stroke-width="2" d="M164.663,110.75 L188.663,110.75 L188.663,134.75 L164.663,134.75 z"/></g><g><path fill="#000" d="M164.663,110.75 L188.663,110.75 L188.663,134.75 L164.663,134.75 z"/><path fill-opacity="0" stroke="#FFF" stroke-width="2" d="M164.663,110.75 L188.663,110.75 L188.663,134.75 L164.663,134.75 z"/></g></g><g><g><path fill="#000" d="M188.663,110.75 L212.663,110.75 L212.663,134.75 L188.663,134.75 z"/><path fill-opacity="0" stroke="#FFF" stroke-width="2" d="M188.663,110.75 L212.663,110.75 L212.663,134.75 L188.663,134.75 z"/></g><g><path fill="#000" d="M188.663,110.75 L212.663,110.75 L212.663,134.75 L188.663,134.75 z"/><path fill-opacity="0" stroke="#FFF" stroke-width="2" d="M188.663,110.75 L212.663,110.75 L212.663,134.75 L188.663,134.75 z"/></g></g><g><g><path fill="#000" d="M140.663,134.75 L164.663,134.75 L164.663,158.75 L140.663,158.75 z"/><path fill-opacity="0" stroke="#FFF" stroke-width="2" d="M140.663,134.75 L164.663,134.75 L164.663,158.75 L140.663,158.75 z"/></g><g><path fill="#000" d="M140.663,134.75 L164.663,134.75 L164.663,158.75 L140.663,158.75 z"/><path fill-opacity="0" stroke="#FFF" stroke-width="2" d="M140.663,134.75 L164.663,134.75 L164.663,158.75 L140.663,158.75 z"/></g></g><g><g><path fill="#000" d="M164.663,134.75 L188.663,134.75 L188.663,158.75 L164.663,158.75 z"/><path fill-opacity="0" stroke="#FFF" stroke-width="2" d="M164.663,134.75 L188.663,134.75 L188.663,158.75 L164.663,158.75 z"/></g><g><path fill="#000" d="M164.663,134.75 L188.663,134.75 L188.663,158.75 L164.663,158.75 z"/><path fill-opacity="0" stroke="#FFF" stroke-width="2" d="M164.663,134.75 L188.663,134.75 L188.663,158.75 L164.663,158.75 z"/></g></g><g><g><path fill="#000" d="M188.663,134.75 L212.663,134.75 L212.663,158.75 L188.663,158.75 z"/><path fill-opacity="0" stroke="#FFF" stroke-width="2" d="M188.663,134.75 L212.663,134.75 L212.663,158.75 L188.663,158.75 z"/></g><g><path fill="#000" d="M188.663,134.75 L212.663,134.75 L212.663,158.75 L188.663,158.75 z"/><path fill-opacity="0" stroke="#FFF" stroke-width="2" d="M188.663,134.75 L212.663,134.75 L212.663,158.75 L188.663,158.75 z"/></g></g><g><g><path fill="#000" d="M140.663,158.75 L164.663,158.75 L164.663,182.75 L140.663,182.75 z"/><path fill-opacity="0" stroke="#FFF" stroke-width="2" d="M140.663,158.75 L164.663,158.75 L164.663,182.75 L140.663,182.75 z"/></g><g><path fill="#000" d="M140.663,158.75 L164.663,158.75 L164.663,182.75 L140.663,182.75 z"/><path fill-opacity="0" stroke="#FFF" stroke-width="2" d="M140.663,158.75 L164.663,158.75 L164.663,182.75 L140.663,182.75 z"/></g></g><g><g><path fill="#000" d="M164.663,158.75 L188.663,158.75 L188.663,182.75 L164.663,182.75 z"/><path fill-opacity="0" stroke="#FFF" stroke-width="2" d="M164.663,158.75 L188.663,158.75 L188.663,182.75 L164.663,182.75 z"/></g><g><path fill="#000" d="M164.663,158.75 L188.663,158.75 L188.663,182.75 L164.663,182.75 z"/><path fill-opacity="0" stroke="#FFF" stroke-width="2" d="M164.663,158.75 L188.663,158.75 L188.663,182.75 L164.663,182.75 z"/></g></g><g><g><path fill="#000" d="M188.663,158.75 L212.663,158.75 L212.663,182.75 L188.663,182.75 z"/><path fill-opacity="0" stroke="#FFF" stroke-width="2" d="M188.663,158.75 L212.663,158.75 L212.663,182.75 L188.663,182.75 z"/></g><g><path fill="#000" d="M188.663,158.75 L212.663,158.75 L212.663,182.75 L188.663,182.75 z"/><path fill-opacity="0" stroke="#FFF" stroke-width="2" d="M188.663,158.75 L212.663,158.75 L212.663,182.75 L188.663,182.75 z"/></g></g><text transform="matrix(1, 0, 0, 1, 176.663, 190.25)"><tspan x="-7.174" y="4" fill="#000" font-family="Helvetica" font-size="12">57</tspan></text><g><g><path fill="#000" d="M236.663,110.75 L260.663,110.75 L260.663,134.75 L236.663,134.75 z"/><path fill-opacity="0" stroke="#FFF" stroke-width="2" d="M236.663,110.75 L260.663,110.75 L260.663,134.75 L236.663,134.75 z"/></g><g><path fill="#000" d="M236.663,110.75 L260.663,110.75 L260.663,134.75 L236.663,134.75 z"/><path fill-opacity="0" stroke="#FFF" stroke-width="2" d="M236.663,110.75 L260.663,110.75 L260.663,134.75 L236.663,134.75 z"/></g></g><g><g><path fill="#000" d="M260.663,110.75 L284.663,110.75 L284.663,134.75 L260.663,134.75 z"/><path fill-opacity="0" stroke="#FFF" stroke-width="2" d="M260.663,110.75 L284.663,110.75 L284.663,134.75 L260.663,134.75 z"/></g><g><path fill="#000" d="M260.663,110.75 L284.663,110.75 L284.663,134.75 L260.663,134.75 z"/><path fill-opacity="0" stroke="#FFF" stroke-width="2" d="M260.663,110.75 L284.663,110.75 L284.663,134.75 L260.663,134.75 z"/></g></g><g><g><path fill="#000" d="M284.663,110.75 L308.663,110.75 L308.663,134.75 L284.663,134.75 z"/><path fill-opacity="0" stroke="#FFF" stroke-width="2" d="M284.663,110.75 L308.663,110.75 L308.663,134.75 L284.663,134.75 z"/></g><g><path fill="#000" d="M284.663,110.75 L308.663,110.75 L308.663,134.75 L284.663,134.75 z"/><path fill-opacity="0" stroke="#FFF" stroke-width="2" d="M284.663,110.75 L308.663,110.75 L308.663,134.75 L284.663,134.75 z"/></g></g><g><g><path fill="#000" d="M236.663,134.75 L260.663,134.75 L260.663,158.75 L236.663,158.75 z"/><path fill-opacity="0" stroke="#FFF" stroke-width="2" d="M236.663,134.75 L260.663,134.75 L260.663,158.75 L236.663,158.75 z"/></g><g><path fill="#000" d="M236.663,134.75 L260.663,134.75 L260.663,158.75 L236.663,158.75 z"/><path fill-opacity="0" stroke="#FFF" stroke-width="2" d="M236.663,134.75 L260.663,134.75 L260.663,158.75 L236.663,158.75 z"/></g></g><g><g><path fill="#000" d="M284.663,134.75 L308.663,134.75 L308.663,158.75 L284.663,158.75 z"/><path fill-opacity="0" stroke="#FFF" stroke-width="2" d="M284.663,134.75 L308.663,134.75 L308.663,158.75 L284.663,158.75 z"/></g><g><path fill="#000" d="M284.663,134.75 L308.663,134.75 L308.663,158.75 L284.663,158.75 z"/><path fill-opacity="0" stroke="#FFF" stroke-width="2" d="M284.663,134.75 L308.663,134.75 L308.663,158.75 L284.663,158.75 z"/></g></g><g><g><path fill="#000" d="M236.663,158.75 L260.663,158.75 L260.663,182.75 L236.663,182.75 z"/><path fill-opacity="0" stroke="#FFF" stroke-width="2" d="M236.663,158.75 L260.663,158.75 L260.663,182.75 L236.663,182.75 z"/></g><g><path fill="#000" d="M236.663,158.75 L260.663,158.75 L260.663,182.75 L236.663,182.75 z"/><path fill-opacity="0" stroke="#FFF" stroke-width="2" d="M236.663,158.75 L260.663,158.75 L260.663,182.75 L236.663,182.75 z"/></g></g><g><g><path fill="#000" d="M260.663,158.75 L284.663,158.75 L284.663,182.75 L260.663,182.75 z"/><path fill-opacity="0" stroke="#FFF" stroke-width="2" d="M260.663,158.75 L284.663,158.75 L284.663,182.75 L260.663,182.75 z"/></g><g><path fill="#000" d="M260.663,158.75 L284.663,158.75 L284.663,182.75 L260.663,182.75 z"/><path fill-opacity="0" stroke="#FFF" stroke-width="2" d="M260.663,158.75 L284.663,158.75 L284.663,182.75 L260.663,182.75 z"/></g></g><g><g><path fill="#000" d="M284.663,158.75 L308.663,158.75 L308.663,182.75 L284.663,182.75 z"/><path fill-opacity="0" stroke="#FFF" stroke-width="2" d="M284.663,158.75 L308.663,158.75 L308.663,182.75 L284.663,182.75 z"/></g><g><path fill="#000" d="M284.663,158.75 L308.663,158.75 L308.663,182.75 L284.663,182.75 z"/><path fill-opacity="0" stroke="#FFF" stroke-width="2" d="M284.663,158.75 L308.663,158.75 L308.663,182.75 L284.663,182.75 z"/></g></g><text transform="matrix(1, 0, 0, 1, 272.663, 190.25)"><tspan x="-7.174" y="4" fill="#000" font-family="Helvetica" font-size="12">57</tspan></text><g><g><path fill="#000" d="M332.663,110.75 L356.663,110.75 L356.663,134.75 L332.663,134.75 z"/><path fill-opacity="0" stroke="#FFF" stroke-width="2" d="M332.663,110.75 L356.663,110.75 L356.663,134.75 L332.663,134.75 z"/></g><g><path fill="#000" d="M332.663,110.75 L356.663,110.75 L356.663,134.75 L332.663,134.75 z"/><path fill-opacity="0" stroke="#FFF" stroke-width="2" d="M332.663,110.75 L356.663,110.75 L356.663,134.75 L332.663,134.75 z"/></g></g><g><g><path fill="#000" d="M380.663,110.75 L404.663,110.75 L404.663,134.75 L380.663,134.75 z"/><path fill-opacity="0" stroke="#FFF" stroke-width="2" d="M380.663,110.75 L404.663,110.75 L404.663,134.75 L380.663,134.75 z"/></g><g><path fill="#000" d="M380.663,110.75 L404.663,110.75 L404.663,134.75 L380.663,134.75 z"/><path fill-opacity="0" stroke="#FFF" stroke-width="2" d="M380.663,110.75 L404.663,110.75 L404.663,134.75 L380.663,134.75 z"/></g></g><g><path fill="#000" d="M356.663,134.75 L380.663,134.75 L380.663,158.75 L356.663,158.75 z"/><path fill-opacity="0" stroke="#FFF" stroke-width="2" d="M356.663,134.75 L380.663,134.75 L380.663,158.75 L356.663,158.75 z"/></g><g><g><path fill="#000" d="M332.663,158.75 L356.663,158.75 L356.663,182.75 L332.663,182.75 z"/><path fill-opacity="0" stroke="#FFF" stroke-width="2" d="M332.663,158.75 L356.663,158.75 L356.663,182.75 L332.663,182.75 z"/></g><g><path fill="#000" d="M332.663,158.75 L356.663,158.75 L356.663,182.75 L332.663,182.75 z"/><path fill-opacity="0" stroke="#FFF" stroke-width="2" d="M332.663,158.75 L356.663,158.75 L356.663,182.75 L332.663,182.75 z"/></g></g><g><g><path fill="#000" d="M380.663,158.75 L404.663,158.75 L404.663,182.75 L380.663,182.75 z"/><path fill-opacity="0" stroke="#FFF" stroke-width="2" d="M380.663,158.75 L404.663,158.75 L404.663,182.75 L380.663,182.75 z"/></g><g><path fill="#000" d="M380.663,158.75 L404.663,158.75 L404.663,182.75 L380.663,182.75 z"/><path fill-opacity="0" stroke="#FFF" stroke-width="2" d="M380.663,158.75 L404.663,158.75 L404.663,182.75 L380.663,182.75 z"/></g></g><text transform="matrix(1, 0, 0, 1, 368.663, 190.25)"><tspan x="-7.174" y="4" fill="#000" font-family="Helvetica" font-size="12">58</tspan></text><text transform="matrix(1, 0, 0, 1, 19.668, 145.25)"><tspan x="-7.168" y="5.5" fill="#000" font-family="Helvetica" font-size="16">...</tspan></text><g><g><path fill="#000" d="M44.663,110.75 L68.663,110.75 L68.663,134.75 L44.663,134.75 z"/><path fill-opacity="0" stroke="#FFF" stroke-width="2" d="M44.663,110.75 L68.663,110.75 L68.663,134.75 L44.663,134.75 z"/></g><g><path fill="#000" d="M44.663,110.75 L68.663,110.75 L68.663,134.75 L44.663,134.75 z"/><path fill-opacity="0" stroke="#FFF" stroke-width="2" d="M44.663,110.75 L68.663,110.75 L68.663,134.75 L44.663,134.75 z"/></g></g><g><g><path fill="#000" d="M92.663,110.75 L116.663,110.75 L116.663,134.75 L92.663,134.75 z"/><path fill-opacity="0" stroke="#FFF" stroke-width="2" d="M92.663,110.75 L116.663,110.75 L116.663,134.75 L92.663,134.75 z"/></g><g><path fill="#000" d="M92.663,110.75 L116.663,110.75 L116.663,134.75 L92.663,134.75 z"/><path fill-opacity="0" stroke="#FFF" stroke-width="2" d="M92.663,110.75 L116.663,110.75 L116.663,134.75 L92.663,134.75 z"/></g></g><g><g><path fill="#000" d="M44.663,134.75 L68.663,134.75 L68.663,158.75 L44.663,158.75 z"/><path fill-opacity="0" stroke="#FFF" stroke-width="2" d="M44.663,134.75 L68.663,134.75 L68.663,158.75 L44.663,158.75 z"/></g><g><path fill="#000" d="M44.663,134.75 L68.663,134.75 L68.663,158.75 L44.663,158.75 z"/><path fill-opacity="0" stroke="#FFF" stroke-width="2" d="M44.663,134.75 L68.663,134.75 L68.663,158.75 L44.663,158.75 z"/></g></g><g><g><path fill="#000" d="M68.663,134.75 L92.663,134.75 L92.663,158.75 L68.663,158.75 z"/><path fill-opacity="0" stroke="#FFF" stroke-width="2" d="M68.663,134.75 L92.663,134.75 L92.663,158.75 L68.663,158.75 z"/></g><g><path fill="#000" d="M68.663,134.75 L92.663,134.75 L92.663,158.75 L68.663,158.75 z"/><path fill-opacity="0" stroke="#FFF" stroke-width="2" d="M68.663,134.75 L92.663,134.75 L92.663,158.75 L68.663,158.75 z"/></g></g><g><g><path fill="#000" d="M92.663,134.75 L116.663,134.75 L116.663,158.75 L92.663,158.75 z"/><path fill-opacity="0" stroke="#FFF" stroke-width="2" d="M92.663,134.75 L116.663,134.75 L116.663,158.75 L92.663,158.75 z"/></g><g><path fill="#000" d="M92.663,134.75 L116.663,134.75 L116.663,158.75 L92.663,158.75 z"/><path fill-opacity="0" stroke="#FFF" stroke-width="2" d="M92.663,134.75 L116.663,134.75 L116.663,158.75 L92.663,158.75 z"/></g></g><g><g><path fill="#000" d="M44.663,158.75 L68.663,158.75 L68.663,182.75 L44.663,182.75 z"/><path fill-opacity="0" stroke="#FFF" stroke-width="2" d="M44.663,158.75 L68.663,158.75 L68.663,182.75 L44.663,182.75 z"/></g><g><path fill="#000" d="M44.663,158.75 L68.663,158.75 L68.663,182.75 L44.663,182.75 z"/><path fill-opacity="0" stroke="#FFF" stroke-width="2" d="M44.663,158.75 L68.663,158.75 L68.663,182.75 L44.663,182.75 z"/></g></g><g><g><path fill="#000" d="M68.663,158.75 L92.663,158.75 L92.663,182.75 L68.663,182.75 z"/><path fill-opacity="0" stroke="#FFF" stroke-width="2" d="M68.663,158.75 L92.663,158.75 L92.663,182.75 L68.663,182.75 z"/></g><g><path fill="#000" d="M68.663,158.75 L92.663,158.75 L92.663,182.75 L68.663,182.75 z"/><path fill-opacity="0" stroke="#FFF" stroke-width="2" d="M68.663,158.75 L92.663,158.75 L92.663,182.75 L68.663,182.75 z"/></g></g><g><g><path fill="#000" d="M92.663,158.75 L116.663,158.75 L116.663,182.75 L92.663,182.75 z"/><path fill-opacity="0" stroke="#FFF" stroke-width="2" d="M92.663,158.75 L116.663,158.75 L116.663,182.75 L92.663,182.75 z"/></g><g><path fill="#000" d="M92.663,158.75 L116.663,158.75 L116.663,182.75 L92.663,182.75 z"/><path fill-opacity="0" stroke="#FFF" stroke-width="2" d="M92.663,158.75 L116.663,158.75 L116.663,182.75 L92.663,182.75 z"/></g></g><text transform="matrix(1, 0, 0, 1, 80.663, 190.25)"><tspan x="-7.174" y="4" fill="#000" font-family="Helvetica" font-size="12">56</tspan></text><g><g><path fill="#FFF" d="M60.5,36.5 L84.5,36.5 L84.5,60.5 L60.5,60.5 z"/><path fill-opacity="0" stroke="#D7D4D8" stroke-width="1" d="M60.5,36.5 L84.5,36.5 L84.5,60.5 L60.5,60.5 z"/></g><path fill-opacity="0" stroke="#D7D4D8" stroke-width="1" d="M60.5,36.5 L84.5,36.5 L84.5,60.5 L60.5,60.5 z"/></g><g><g><path fill="#FFF" d="M156.5,60.5 L180.5,60.5 L180.5,84.5 L156.5,84.5 z"/><path fill-opacity="0" stroke="#D7D4D8" stroke-width="1" d="M156.5,60.5 L180.5,60.5 L180.5,84.5 L156.5,84.5 z"/></g><path fill-opacity="0" stroke="#D7D4D8" stroke-width="1" d="M156.5,60.5 L180.5,60.5 L180.5,84.5 L156.5,84.5 z"/></g><g><g><path fill="#FFF" d="M228.5,60.5 L252.5,60.5 L252.5,84.5 L228.5,84.5 z"/><path fill-opacity="0" stroke="#D7D4D8" stroke-width="1" d="M228.5,60.5 L252.5,60.5 L252.5,84.5 L228.5,84.5 z"/></g><path fill-opacity="0" stroke="#D7D4D8" stroke-width="1" d="M228.5,60.5 L252.5,60.5 L252.5,84.5 L228.5,84.5 z"/></g><g><g><path fill="#FFF" d="M380.663,36.5 L404.663,36.5 L404.663,60.5 L380.663,60.5 z"/><path fill-opacity="0" stroke="#D7D4D8" stroke-width="1" d="M380.663,36.5 L404.663,36.5 L404.663,60.5 L380.663,60.5 z"/></g><path fill-opacity="0" stroke="#D7D4D8" stroke-width="1" d="M380.663,36.5 L404.663,36.5 L404.663,60.5 L380.663,60.5 z"/></g><g><g><path fill="#FFF" d="M380.663,60.5 L404.663,60.5 L404.663,84.5 L380.663,84.5 z"/><path fill-opacity="0" stroke="#D7D4D8" stroke-width="1" d="M380.663,60.5 L404.663,60.5 L404.663,84.5 L380.663,84.5 z"/></g><path fill-opacity="0" stroke="#D7D4D8" stroke-width="1" d="M380.663,60.5 L404.663,60.5 L404.663,84.5 L380.663,84.5 z"/></g><g><path fill="#FFF" d="M260.663,134.75 L284.663,134.75 L284.663,158.75 L260.663,158.75 z"/><path fill-opacity="0" stroke="#D7D4D8" stroke-width="1" d="M260.663,134.75 L284.663,134.75 L284.663,158.75 L260.663,158.75 z"/></g><g><g><path fill="#FFF" d="M356.663,110.75 L380.663,110.75 L380.663,134.75 L356.663,134.75 z"/><path fill-opacity="0" stroke="#D7D4D8" stroke-width="1" d="M356.663,110.75 L380.663,110.75 L380.663,134.75 L356.663,134.75 z"/></g><path fill-opacity="0" stroke="#D7D4D8" stroke-width="1" d="M356.663,110.75 L380.663,110.75 L380.663,134.75 L356.663,134.75 z"/></g><g><g><path fill="#FFF" d="M332.663,134.75 L356.663,134.75 L356.663,158.75 L332.663,158.75 z"/><path fill-opacity="0" stroke="#D7D4D8" stroke-width="1" d="M332.663,134.75 L356.663,134.75 L356.663,158.75 L332.663,158.75 z"/></g><g><path fill="#FFF" d="M332.663,134.75 L356.663,134.75 L356.663,158.75 L332.663,158.75 z"/><path fill-opacity="0" stroke="#D7D4D8" stroke-width="1" d="M332.663,134.75 L356.663,134.75 L356.663,158.75 L332.663,158.75 z"/></g></g><g><g><path fill="#FFF" d="M380.663,134.75 L404.663,134.75 L404.663,158.75 L380.663,158.75 z"/><path fill-opacity="0" stroke="#D7D4D8" stroke-width="1" d="M380.663,134.75 L404.663,134.75 L404.663,158.75 L380.663,158.75 z"/></g><g><path fill="#FFF" d="M380.663,134.75 L404.663,134.75 L404.663,158.75 L380.663,158.75 z"/><path fill-opacity="0" stroke="#D7D4D8" stroke-width="1" d="M380.663,134.75 L404.663,134.75 L404.663,158.75 L380.663,158.75 z"/></g></g><g><g><path fill="#FFF" d="M356.663,158.75 L380.663,158.75 L380.663,182.75 L356.663,182.75 z"/><path fill-opacity="0" stroke="#D7D4D8" stroke-width="1" d="M356.663,158.75 L380.663,158.75 L380.663,182.75 L356.663,182.75 z"/></g><g><path fill="#FFF" d="M356.663,158.75 L380.663,158.75 L380.663,182.75 L356.663,182.75 z"/><path fill-opacity="0" stroke="#D7D4D8" stroke-width="1" d="M356.663,158.75 L380.663,158.75 L380.663,182.75 L356.663,182.75 z"/></g></g><g><g><path fill="#FFF" d="M68.663,110.75 L92.663,110.75 L92.663,134.75 L68.663,134.75 z"/><path fill-opacity="0" stroke="#D7D4D8" stroke-width="1" d="M68.663,110.75 L92.663,110.75 L92.663,134.75 L68.663,134.75 z"/></g><path fill-opacity="0" stroke="#D7D4D8" stroke-width="1" d="M68.663,110.75 L92.663,110.75 L92.663,134.75 L68.663,134.75 z"/></g></g></svg>