<svg xmlns="http://www.w3.org/2000/svg" xmlns:xlink="http://www.w3.org/1999/xlink" width="595.276" height="841.89" x="0" y="0" version="1.1" viewBox="0 0 595.276 841.89"><g id="Layer 1"><path fill="#BA2122" d="M95.669,60.236 L244.234,60.236 L244.234,63.78 L95.669,63.78 z"/><path fill="#BA2122" d="M14.555,24.803 L244.234,24.803 L244.234,28.346 L14.555,28.346 z"/><path fill="#BA2122" d="M14.555,42.564 L244.234,42.564 L244.234,46.117 L14.555,46.117 z"/><g><path fill="#0433FF" d="M96.169,93.261 L244.734,93.261"/><path fill-opacity="0" stroke="#0433FF" stroke-width="2" d="M96.169,93.261 L244.734,93.261"/></g><g><path fill="#0433FF" d="M15.055,43.064 L96.169,43.064"/><path fill-opacity="0" stroke="#0433FF" stroke-width="2" d="M15.055,43.064 L96.169,43.064"/></g><g><path fill="#0433FF" d="M244.734,18.483 L312.287,18.483"/><path fill-opacity="0" stroke="#0433FF" stroke-width="2" d="M244.734,18.483 L312.287,18.483"/></g><g><path fill="#000" d="M96.169,46.617 L96.169,93.261"/><path fill-opacity="0" stroke="#000" stroke-dasharray="2 2" stroke-width="1" d="M96.169,46.617 L96.169,93.261"/></g><g><path fill="#000" d="M244.734,18.483 L244.734,93.261"/><path fill-opacity="0" stroke="#000" stroke-dasharray="2 2" stroke-width="1" d="M244.734,18.483 L244.734,93.261"/></g><text transform="matrix(1, 0, 0, 1, 280.054, 31.303)"><tspan x="-7.219" y="3.5" fill="#000" font-family="Helvetica" font-size="10">I(x)</tspan></text><g><path fill-opacity="0" stroke="#000" stroke-width="1" d="M11.13,99.713 L316.798,99.76"/><path fill="#000" fill-opacity="1" stroke="#000" stroke-opacity="1" stroke-width="1" d="M316.797,102.76 L324.798,99.761 L316.798,96.76 z"/></g><text transform="matrix(1, 0, 0, 1, 328.997, 99.261)"><tspan x="-2.5" y="3.5" fill="#000" font-family="Helvetica" font-size="10">x</tspan></text><path fill="#BA2122" d="M95.669,77.953 L244.234,77.953 L244.234,81.496 L95.669,81.496 z"/><g><path fill-opacity="0" stroke="#000" stroke-width="1" d="M15.055,103.256 L15.055,9.5"/><path fill="#000" fill-opacity="1" stroke="#000" stroke-opacity="1" stroke-width="1" d="M18.055,9.5 L15.055,1.5 L12.055,9.5 z"/></g><text transform="matrix(1, 0, 0, 1, 6.809, 79.724)"><tspan x="-2.781" y="3.5" fill="#000" font-family="Helvetica" font-size="10">1</tspan></text><text transform="matrix(1, 0, 0, 1, 6.809, 62.008)"><tspan x="-2.781" y="3.5" fill="#000" font-family="Helvetica" font-size="10">2</tspan></text><text transform="matrix(1, 0, 0, 1, 6.809, 44.34)"><tspan x="-2.781" y="3.5" fill="#000" font-family="Helvetica" font-size="10">3</tspan></text><text transform="matrix(1, 0, 0, 1, 6.809, 26.575)"><tspan x="-2.781" y="3.5" fill="#000" font-family="Helvetica" font-size="10">4</tspan></text></g></svg>